<svg width="24px" height="24px" viewBox="0 0 24 24" version="1.1" xmlns="http://www.w3.org/2000/svg" xmlns:xlink="http://www.w3.org/1999/xlink">
    <g stroke="none" stroke-width="1" fill="none" fill-rule="evenodd">
        <g transform="translate(-80.000000, 0.000000)" fill="#000000" fill-rule="nonzero">
            <g id="maximize" transform="translate(80.000000, 0.000000)">
                <path d="M17.640625,20 C17.953125,20 18.2526042,19.9361979 18.5390625,19.8085938 C18.8255208,19.6809896 19.0768229,19.5091146 19.2929688,19.2929688 C19.5091146,19.0768229 19.6809896,18.8255208 19.8085938,18.5390625 C19.9361979,18.2526042 20,17.953125 20,17.640625 L20,17.640625 L20,6.359375 C20,6.046875 19.9361979,5.74739583 19.8085938,5.4609375 C19.6809896,5.17447917 19.5091146,4.92317708 19.2929688,4.70703125 C19.0768229,4.49088542 18.8255208,4.31901042 18.5390625,4.19140625 C18.2526042,4.06380208 17.953125,4 17.640625,4 L17.640625,4 L6.359375,4 C6.046875,4 5.74739583,4.06380208 5.4609375,4.19140625 C5.17447917,4.31901042 4.92317708,4.49088542 4.70703125,4.70703125 C4.49088542,4.92317708 4.31901042,5.17447917 4.19140625,5.4609375 C4.06380208,5.74739583 4,6.046875 4,6.359375 L4,6.359375 L4,17.640625 C4,17.953125 4.06380208,18.2526042 4.19140625,18.5390625 C4.31901042,18.8255208 4.49088542,19.0768229 4.70703125,19.2929688 C4.92317708,19.5091146 5.17447917,19.6809896 5.4609375,19.8085938 C5.74739583,19.9361979 6.046875,20 6.359375,20 L6.359375,20 L17.640625,20 Z M17.6015625,18.3984375 L6.3984375,18.3984375 C6.2890625,18.3984375 6.18619792,18.3776042 6.08984375,18.3359375 C5.99348958,18.2942708 5.90885417,18.2369792 5.8359375,18.1640625 C5.76302083,18.0911458 5.70572917,18.0065104 5.6640625,17.9101562 C5.62239583,17.8138021 5.6015625,17.7109375 5.6015625,17.6015625 L5.6015625,17.6015625 L5.6015625,6.3984375 C5.6015625,6.2890625 5.62239583,6.18619792 5.6640625,6.08984375 C5.70572917,5.99348958 5.76302083,5.90885417 5.8359375,5.8359375 C5.90885417,5.76302083 5.99348958,5.70572917 6.08984375,5.6640625 C6.18619792,5.62239583 6.2890625,5.6015625 6.3984375,5.6015625 L6.3984375,5.6015625 L17.6015625,5.6015625 C17.7109375,5.6015625 17.8138021,5.62239583 17.9101562,5.6640625 C18.0065104,5.70572917 18.0911458,5.76302083 18.1640625,5.8359375 C18.2369792,5.90885417 18.2942708,5.99348958 18.3359375,6.08984375 C18.3776042,6.18619792 18.3984375,6.2890625 18.3984375,6.3984375 L18.3984375,6.3984375 L18.3984375,17.6015625 C18.3984375,17.7109375 18.3776042,17.8138021 18.3359375,17.9101562 C18.2942708,18.0065104 18.2369792,18.0911458 18.1640625,18.1640625 C18.0911458,18.2369792 18.0065104,18.2942708 17.9101562,18.3359375 C17.8138021,18.3776042 17.7109375,18.3984375 17.6015625,18.3984375 L17.6015625,18.3984375 Z"></path>
            </g>
        </g>
    </g>
</svg>
