<?xml version="1.0" encoding="UTF-8"?>
<svg width="24px" height="24px" viewBox="0 0 24 24" version="1.1" xmlns="http://www.w3.org/2000/svg" xmlns:xlink="http://www.w3.org/1999/xlink">
    <g stroke="none" stroke-width="1" fill="none" fill-rule="evenodd">
        <g fill="#000000" fill-rule="nonzero">
            <g id="restore">
                <path d="M18.3984375,16.6640625 C18.6380208,16.5807292 18.8567708,16.4635417 19.0546875,16.3125 C19.2526042,16.1614583 19.421875,15.9869792 19.5625,15.7890625 C19.703125,15.5911458 19.8111979,15.3736979 19.8867188,15.1367188 C19.9622396,14.8997396 20,14.6536458 20,14.3984375 L20,14.3984375 L20,8.796875 C20,8.13541667 19.8736979,7.51302083 19.6210938,6.9296875 C19.3684896,6.34635417 19.0247396,5.83854167 18.5898438,5.40625 C18.1549479,4.97395833 17.6458333,4.63151042 17.0625,4.37890625 C16.4791667,4.12630208 15.8567708,4 15.1953125,4 L15.1953125,4 L9.6015625,4 C9.34635417,4 9.10026042,4.03776042 8.86328125,4.11328125 C8.62630208,4.18880208 8.40885417,4.296875 8.2109375,4.4375 C8.01302083,4.578125 7.83854167,4.74739583 7.6875,4.9453125 C7.53645833,5.14322917 7.41927083,5.36197917 7.3359375,5.6015625 L7.3359375,5.6015625 L15.1953125,5.6015625 C15.6223958,5.6015625 16.0299479,5.68359375 16.4179688,5.84765625 C16.8059896,6.01171875 17.1471354,6.23567708 17.4414062,6.51953125 C17.7356771,6.80338542 17.96875,7.13671875 18.140625,7.51953125 C18.3125,7.90234375 18.3984375,8.30989583 18.3984375,8.7421875 L18.3984375,8.7421875 L18.3984375,16.6640625 Z M14.4375,20 C14.7552083,20 15.0559896,19.9361979 15.3398438,19.8085938 C15.6236979,19.6809896 15.8736979,19.5091146 16.0898438,19.2929688 C16.3059896,19.0768229 16.4778646,18.8268229 16.6054688,18.5429688 C16.7330729,18.2591146 16.796875,17.9583333 16.796875,17.640625 L16.796875,17.640625 L16.796875,9.5625 C16.796875,9.24479167 16.7330729,8.94270833 16.6054688,8.65625 C16.4778646,8.36979167 16.3072917,8.11979167 16.09375,7.90625 C15.8802083,7.69270833 15.6302083,7.52213542 15.34375,7.39453125 C15.0572917,7.26692708 14.7552083,7.203125 14.4375,7.203125 L14.4375,7.203125 L6.359375,7.203125 C6.04166667,7.203125 5.74088542,7.26692708 5.45703125,7.39453125 C5.17317708,7.52213542 4.92317708,7.69401042 4.70703125,7.91015625 C4.49088542,8.12630208 4.31901042,8.37630208 4.19140625,8.66015625 C4.06380208,8.94401042 4,9.24479167 4,9.5625 L4,9.5625 L4,17.640625 C4,17.953125 4.06380208,18.2526042 4.19140625,18.5390625 C4.31901042,18.8255208 4.49088542,19.0768229 4.70703125,19.2929688 C4.92317708,19.5091146 5.17447917,19.6809896 5.4609375,19.8085938 C5.74739583,19.9361979 6.046875,20 6.359375,20 L6.359375,20 L14.4375,20 Z M14.3984375,18.3984375 L6.3984375,18.3984375 C6.2890625,18.3984375 6.18619792,18.3776042 6.08984375,18.3359375 C5.99348958,18.2942708 5.90885417,18.2369792 5.8359375,18.1640625 C5.76302083,18.0911458 5.70572917,18.0065104 5.6640625,17.9101562 C5.62239583,17.8138021 5.6015625,17.7109375 5.6015625,17.6015625 L5.6015625,17.6015625 L5.6015625,9.6015625 C5.6015625,9.4921875 5.62239583,9.38932292 5.6640625,9.29296875 C5.70572917,9.19661458 5.76302083,9.11067708 5.8359375,9.03515625 C5.90885417,8.95963542 5.99348958,8.90104167 6.08984375,8.859375 C6.18619792,8.81770833 6.2890625,8.796875 6.3984375,8.796875 L6.3984375,8.796875 L14.3984375,8.796875 C14.5078125,8.796875 14.6119792,8.81770833 14.7109375,8.859375 C14.8098958,8.90104167 14.8958333,8.95833333 14.96875,9.03125 C15.0416667,9.10416667 15.0989583,9.19010417 15.140625,9.2890625 C15.1822917,9.38802083 15.203125,9.4921875 15.203125,9.6015625 L15.203125,9.6015625 L15.203125,17.6015625 C15.203125,17.7109375 15.1822917,17.8138021 15.140625,17.9101562 C15.0989583,18.0065104 15.0403646,18.0911458 14.9648438,18.1640625 C14.8893229,18.2369792 14.8033854,18.2942708 14.7070312,18.3359375 C14.6106771,18.3776042 14.5078125,18.3984375 14.3984375,18.3984375 L14.3984375,18.3984375 Z"></path>
            </g>
        </g>
    </g>
</svg>
