<svg width="24px" height="24px" viewBox="0 0 24 24" version="1.1" xmlns="http://www.w3.org/2000/svg" xmlns:xlink="http://www.w3.org/1999/xlink">
    <g stroke="none" stroke-width="1" fill="none" fill-rule="evenodd">
        <g transform="translate(-120.000000, 0.000000)" fill="#000000" fill-rule="nonzero">
            <g id="close" transform="translate(120.000000, 0.000000)">
                <path d="M19.203125,20 C19.3125,20 19.4166667,19.9791667 19.515625,19.9375 C19.6145833,19.8958333 19.6992188,19.8385417 19.7695312,19.765625 C19.8398438,19.6927083 19.8958333,19.6067708 19.9375,19.5078125 C19.9791667,19.4088542 20,19.3046875 20,19.1953125 C20,18.9765625 19.921875,18.7890625 19.765625,18.6328125 L19.765625,18.6328125 L13.1328125,12 L19.765625,5.3671875 C19.921875,5.2109375 20,5.02083333 20,4.796875 C20,4.6875 19.9791667,4.58463542 19.9375,4.48828125 C19.8958333,4.39192708 19.8385417,4.30729167 19.765625,4.234375 C19.6927083,4.16145833 19.6080729,4.10416667 19.5117188,4.0625 C19.4153646,4.02083333 19.3125,4 19.203125,4 C18.9791667,4 18.7890625,4.078125 18.6328125,4.234375 L18.6328125,4.234375 L12,10.8671875 L5.3671875,4.234375 C5.2109375,4.078125 5.0234375,4 4.8046875,4 C4.6953125,4 4.59114583,4.02083333 4.4921875,4.0625 C4.39322917,4.10416667 4.30729167,4.16015625 4.234375,4.23046875 C4.16145833,4.30078125 4.10416667,4.38541667 4.0625,4.484375 C4.02083333,4.58333333 4,4.6875 4,4.796875 C4,5.02083333 4.078125,5.2109375 4.234375,5.3671875 L4.234375,5.3671875 L10.8671875,12 L4.234375,18.6328125 C4.078125,18.7890625 4,18.9765625 4,19.1953125 C4,19.4244792 4.07682292,19.6158854 4.23046875,19.7695312 C4.38411458,19.9231771 4.57552083,20 4.8046875,20 C5.0234375,20 5.2109375,19.921875 5.3671875,19.765625 L5.3671875,19.765625 L12,13.1328125 L18.6328125,19.765625 C18.7890625,19.921875 18.9791667,20 19.203125,20 Z"></path>
            </g>
        </g>
    </g>
</svg>
